<svg xmlns="http://www.w3.org/2000/svg" width="19.984" height="32.74" viewBox="0 0 188 308">
  <metadata><?xpacket begin="﻿" id="W5M0MpCehiHzreSzNTczkc9d"?>
<x:xmpmeta xmlns:x="adobe:ns:meta/" x:xmptk="Adobe XMP Core 5.6-c142 79.160924, 2017/07/13-01:06:39        ">
   <rdf:RDF xmlns:rdf="http://www.w3.org/1999/02/22-rdf-syntax-ns#">
      <rdf:Description rdf:about=""/>
   </rdf:RDF>
</x:xmpmeta>
                                                                                                    
                                                                                                    
                                                                                                    
                                                                                                    
                                                                                                    
                                                                                                    
                                                                                                    
                                                                                                    
                                                                                                    
                                                                                                    
                                                                                                    
                                                                                                    
                                                                                                    
                                                                                                    
                                                                                                    
                                                                                                    
                                                                                                    
                                                                                                    
                                                                                                    
                                                                                                    
                           
<?xpacket end="w"?></metadata>
<defs>
    <style>
      .cls-1 {
        fill: #2c3e50;
        fill-rule: evenodd;
      }
    </style>
  </defs>
  <path id="Tvar_1" data-name="Tvar 1" class="cls-1" d="M99,223l7-10,4-7,3-6,7-13,6-11,6-13,8-16,5-12,4-12,3-9,2-8V98c1.549-.543-1.335-17.584-3-17l-6-11-5-6-8-8-7-4-7-3-6-2-4-1H90l-7,2-6,2-7,3-4,3-4,4-4,3-3,4-3,4-3,6-2,4-2,6-1,5v17l2,5,1,4,2,6,2,6,2,5,5,11,3,6,9,20,7,13,5,9,3,6,3,5,3,6,2,4,3,4Z"/>
</svg>
